# xmcd
#
# Track frame offsets:
#	183
#	8828
#	21080
#	31703
#	40178
#	55423
#	66325
#	76960
#	95748
#	104528
#	115460
#	126288
#	135995
#	145778
#	155903
#	167180
#
# Disc length: 2381 seconds
#
# Revision: 3
# Processed by: cddbd v1.5.2PL0 Copyright (c) Steve Scherf et al.
# Submitted via: audiograbber 1.82.02
#
DISCID=dc094b10
DTITLE=Elvis Presley - Too Much Vol.3
DYEAR=1991
DGENRE=Rock and Roll
TTITLE0=Rip It Up
TTITLE1=Love Me
TTITLE2=When My Blue Moon Turns To Gold Again
TTITLE3=Long Tall Sally
TTITLE4=First In Line
TTITLE5=Paralyzed
TTITLE6=So Glad You're Mine
TTITLE7=Old Shep
TTITLE8=Ready Teddy
TTITLE9=Anyplace Is Paradise
TTITLE10=How's The World Treating You
TTITLE11=How do You think I feel
TTITLE12=Let Me
TTITLE13=Poor Boy
TTITLE14=We're Gonna Move
TTITLE15=Too Much
EXTD=
EXTT0=
EXTT1=
EXTT2=
EXTT3=
EXTT4=
EXTT5=
EXTT6=
EXTT7=
EXTT8=
EXTT9=
EXTT10=
EXTT11=
EXTT12=
EXTT13=
EXTT14=
EXTT15=
PLAYORDER=
